<svg width="65" height="65" viewBox="0 0 65 65" fill="none" xmlns="http://www.w3.org/2000/svg">
<path d="M39.8547 43.6148C39.7418 43.7706 39.6147 43.9198 39.4742 44.0602L35.5056 48.0264C34.071 49.46 31.7451 49.46 30.3105 48.0264L26.3419 44.0602C26.2934 44.0117 26.2465 43.9622 26.2013 43.9117L26.2024 43.9128C24.9091 42.4714 24.9557 40.2539 26.342 38.8683L30.3107 34.9022C31.7452 33.4685 34.0712 33.4685 35.5057 34.9022L39.4744 38.8683C40.7684 40.1615 40.8952 42.1795 39.8547 43.6148Z" fill="url(#paint0_radial_8935_28126)"/>
<path fill-rule="evenodd" clip-rule="evenodd" d="M4.19092 24.5066C-0.100756 28.7982 -0.100748 35.7564 4.19093 40.0481L25.2014 61.0586C29.4931 65.3502 36.4513 65.3503 40.7429 61.0586L61.7534 40.0481C66.0451 35.7564 66.0451 28.7982 61.7534 24.5066L40.7429 3.4961C36.4513 -0.795576 29.4931 -0.795576 25.2014 3.4961L4.19092 24.5066ZM13.3353 30.9336C9.04363 26.6419 9.04362 19.6837 13.3353 15.392L25.2078 3.51955C29.4994 -0.772132 36.4576 -0.772141 40.7493 3.51954L52.6218 15.392C56.9135 19.6837 56.9135 26.6419 52.6218 30.9335L40.7493 42.806C40.4582 43.0971 40.1549 43.3684 39.8409 43.62C39.7283 43.7755 39.6019 43.9241 39.4618 44.0642L35.5043 48.0217C34.0738 49.4522 31.7544 49.4522 30.3238 48.0217L26.3663 44.0642C26.1559 43.8538 25.9765 43.6241 25.8279 43.3809C25.6157 43.1987 25.4088 43.0071 25.2078 42.806L13.3353 30.9336Z" fill="url(#paint1_linear_8935_28126)"/>
<path d="M19.7913 27.1204C16.9302 29.9815 16.9302 34.6203 19.7914 37.4814L26.2271 43.9172C24.9375 42.4789 24.9839 40.2662 26.3664 38.8837L30.3239 34.9262C31.7544 33.4957 34.0738 33.4957 35.5044 34.9262L39.4619 38.8837C40.7553 40.1771 40.8793 42.1971 39.8339 43.6298L45.9823 37.4814C48.8434 34.6203 48.8434 29.9815 45.9823 27.1204L38.0674 19.2054C35.2062 16.3443 30.5674 16.3443 27.7063 19.2054L19.7913 27.1204Z" fill="url(#paint2_radial_8935_28126)"/>
<path d="M19.7913 27.1204C16.9302 29.9815 16.9302 34.6203 19.7914 37.4814L26.2271 43.9172C24.9375 42.4789 24.9839 40.2662 26.3664 38.8837L30.3239 34.9262C31.7544 33.4957 34.0738 33.4957 35.5044 34.9262L39.4619 38.8837C40.7553 40.1771 40.8793 42.1971 39.8339 43.6298L45.9823 37.4814C48.8434 34.6203 48.8434 29.9815 45.9823 27.1204L38.0674 19.2054C35.2062 16.3443 30.5674 16.3443 27.7063 19.2054L19.7913 27.1204Z" fill="url(#paint3_radial_8935_28126)"/>
<path d="M13.3355 15.392C9.04377 19.6837 9.04378 26.6419 13.3355 30.9336L19.1446 36.7427C16.9496 33.8705 17.1652 29.7466 19.7914 27.1203L27.7064 19.2054C30.5675 16.3443 35.2063 16.3443 38.0674 19.2054L45.9824 27.1203C48.8435 29.9815 48.8435 34.6203 45.9824 37.4814L39.8546 43.6092C40.1638 43.3606 40.4626 43.0929 40.7495 42.806L52.6219 30.9336C56.9136 26.6419 56.9136 19.6837 52.6219 15.392L40.7495 3.51954C36.4578 -0.772143 29.4996 -0.772134 25.2079 3.51955L13.3355 15.392Z" fill="url(#paint4_linear_8935_28126)"/>
<defs>
<radialGradient id="paint0_radial_8935_28126" cx="0" cy="0" r="1" gradientUnits="userSpaceOnUse" gradientTransform="translate(33.1014 192.625) rotate(-90) scale(559.782 21.8128)">
<stop stop-color="#E8E9FF"/>
<stop offset="1" stop-color="#979EF4"/>
</radialGradient>
<linearGradient id="paint1_linear_8935_28126" x1="33.3707" y1="66.6033" x2="33.0965" y2="25.5736" gradientUnits="userSpaceOnUse">
<stop stop-color="#3944CF"/>
<stop offset="1" stop-color="#5D67E1"/>
</linearGradient>
<radialGradient id="paint2_radial_8935_28126" cx="0" cy="0" r="1" gradientUnits="userSpaceOnUse" gradientTransform="translate(32.9722 42.5174) rotate(-90) scale(25.6 25.6)">
<stop stop-color="white" stop-opacity="0"/>
<stop offset="1" stop-color="white" stop-opacity="0.75"/>
</radialGradient>
<radialGradient id="paint3_radial_8935_28126" cx="0" cy="0" r="1" gradientUnits="userSpaceOnUse" gradientTransform="translate(32.9722 39.4899) rotate(-90) scale(22.5556 25.6)">
<stop stop-color="#9EA5F8"/>
<stop offset="1" stop-color="#525EEB"/>
</radialGradient>
<linearGradient id="paint4_linear_8935_28126" x1="32.9723" y1="26.0416" x2="32.9723" y2="-0.6307" gradientUnits="userSpaceOnUse">
<stop stop-color="#3C47D3"/>
<stop offset="1" stop-color="#5D67E1"/>
</linearGradient>
</defs>
</svg>
